<?xml version="1.0" encoding="utf-8"?>
<!-- Generator: Adobe Illustrator 25.4.0, SVG Export Plug-In . SVG Version: 6.00 Build 0)  -->
<svg version="1.1" id="Layer_1" xmlns="http://www.w3.org/2000/svg" xmlns:xlink="http://www.w3.org/1999/xlink" x="0px" y="0px"
	 viewBox="0 0 80 9.73" style="enable-background:new 0 0 80 9.73;" xml:space="preserve">
<style type="text/css">
	.st0{fill:#CBCAB7;}
</style>
<g>
	<path class="st0" d="M39.4,5.27c0.04,0.26,0.14,0.52,0.26,0.76l0.25,0.5c0.11,0.24,0.23,0.56,0.34,0.82l0.01,0.02
		c0.11-0.26,0.22-0.55,0.33-0.8c0.03-0.06,0.06-0.12,0.09-0.18l0.08-0.16l0.09-0.17c0.12-0.22,0.24-0.49,0.27-0.76
		c0.02-0.13,0.02-0.26,0.01-0.38c0-0.05-0.02-0.14-0.03-0.2c-0.02-0.06-0.04-0.12-0.05-0.16c-0.08-0.2-0.16-0.37-0.24-0.54
		c-0.07-0.14-0.12-0.27-0.18-0.39c-0.02,0.04-0.04,0.08-0.06,0.12c-0.02,0.03-0.05,0.1-0.08,0.14c0.02,0.07,0.03,0.15,0.05,0.23
		c0.04,0.17,0.09,0.36,0.13,0.55c0.01,0.05,0.02,0.09,0.02,0.14c0,0.05,0,0.06,0,0.12c-0.01,0.1-0.02,0.2-0.05,0.29
		c-0.05,0.19-0.14,0.37-0.27,0.58l-0.1,0.16c-0.01,0.02-0.01,0.02-0.01,0.02l0,0h0c0,0,0,0,0,0s0,0,0,0h0l0,0c0,0,0,0,0,0
		l-0.01-0.02l-0.09-0.16c-0.12-0.21-0.22-0.4-0.26-0.6C39.83,5,39.82,4.8,39.85,4.63c0.03-0.18,0.1-0.36,0.15-0.52
		c0.02-0.07,0.04-0.13,0.06-0.19c-0.04-0.09-0.09-0.17-0.14-0.26c-0.05,0.1-0.12,0.21-0.19,0.33c-0.09,0.16-0.19,0.32-0.27,0.54
		C39.38,4.75,39.37,5.01,39.4,5.27z"/>
	<path class="st0" d="M36.3,4.34c0.19,0.09,0.39,0.16,0.59,0.23c0.28,0.09,0.6,0.14,0.88,0.1c0.28-0.03,0.52-0.12,0.68-0.27
		c0.16-0.14,0.25-0.28,0.33-0.41c0.16-0.26,0.26-0.47,0.37-0.61c0.11-0.14,0.2-0.19,0.19-0.19c0,0-0.1,0.03-0.25,0.15
		c-0.16,0.12-0.33,0.32-0.55,0.54c-0.11,0.11-0.23,0.22-0.38,0.3c-0.14,0.08-0.33,0.12-0.53,0.12c-0.2,0-0.43-0.04-0.68-0.12
		c-0.06-0.02-0.12-0.04-0.19-0.07c-0.01,0-0.02-0.01-0.02-0.01c-0.01,0,0,0,0,0l0,0l0,0h0h0l0,0l0,0c0,0,0,0,0.01-0.01
		c0.04-0.02,0.08-0.05,0.12-0.08c0.16-0.11,0.28-0.19,0.44-0.26c0.08-0.03,0.16-0.06,0.24-0.09c0.05-0.02,0.06-0.02,0.1-0.03
		c0.04-0.01,0.08-0.02,0.12-0.02c0.18-0.02,0.35-0.05,0.51-0.1c0.31-0.08,0.54-0.21,0.68-0.33c0.14-0.12,0.18-0.21,0.18-0.21
		c0,0-0.06,0.08-0.22,0.15c-0.15,0.08-0.39,0.14-0.69,0.17c-0.15,0.02-0.32,0.02-0.51,0.02c-0.05,0-0.1,0-0.16,0
		c-0.05,0-0.13,0.02-0.18,0.02c-0.1,0.02-0.21,0.04-0.32,0.07c-0.22,0.05-0.42,0.14-0.6,0.22c-0.13,0.05-0.09,0.04-0.13,0.05
		c-0.04,0.02-0.08,0.03-0.12,0.05c-0.05,0.02-0.09,0.03-0.15,0.04c-0.21,0.04-0.47,0.06-0.69,0.06c0,0,0.01,0.01,0.02,0.01
		C35.68,4.05,36.03,4.22,36.3,4.34z"/>
	<path class="st0" d="M41.96,3.88c-0.22-0.22-0.4-0.43-0.55-0.54c-0.15-0.12-0.25-0.15-0.25-0.15c0,0,0.09,0.06,0.19,0.19
		c0.11,0.13,0.22,0.34,0.37,0.61c0.08,0.13,0.17,0.27,0.33,0.41c0.17,0.14,0.41,0.24,0.69,0.27c0.28,0.03,0.59-0.02,0.88-0.1
		c0.2-0.06,0.4-0.14,0.59-0.23c0.28-0.12,0.62-0.29,0.89-0.48c0,0,0.01-0.01,0.02-0.01c-0.23,0-0.48-0.02-0.69-0.06
		c-0.05-0.01-0.1-0.02-0.15-0.04c-0.04-0.02-0.08-0.03-0.12-0.05c-0.04-0.02-0.13-0.05-0.13-0.05c-0.17-0.08-0.38-0.17-0.6-0.22
		c-0.11-0.03-0.22-0.05-0.32-0.07c-0.05-0.01-0.12-0.02-0.18-0.02c-0.05,0-0.1,0-0.16,0c-0.19,0-0.36-0.01-0.51-0.02
		c-0.3-0.03-0.54-0.1-0.69-0.17C41.41,3.07,41.35,2.99,41.35,3c0,0,0.04,0.09,0.18,0.21c0.14,0.12,0.37,0.25,0.68,0.33
		c0.16,0.04,0.33,0.07,0.51,0.1c0.04,0.01,0.09,0.02,0.12,0.02c0.04,0.01,0.06,0.02,0.1,0.03c0.08,0.02,0.16,0.05,0.24,0.09
		c0.16,0.06,0.28,0.15,0.44,0.26c0.04,0.02,0.08,0.05,0.12,0.08c0.02,0.01,0.01,0.01,0.01,0.01l0,0l0,0h0h0l0,0l0,0c0,0,0,0,0,0
		c-0.01,0-0.02,0.01-0.02,0.01c-0.06,0.02-0.12,0.05-0.19,0.07c-0.24,0.08-0.47,0.12-0.68,0.12c-0.2,0-0.4-0.05-0.53-0.12
		C42.19,4.1,42.07,3.99,41.96,3.88z"/>
	<path class="st0" d="M40.28,2.71c0.36,0,0.36-0.55,0-0.55C39.93,2.15,39.93,2.71,40.28,2.71z"/>
	<path class="st0" d="M40.28,5.18c0.36,0,0.36-0.55,0-0.55C39.93,4.62,39.93,5.18,40.28,5.18z"/>
	<path class="st0" d="M41.43,2.07c0.26,0,0.26-0.4,0-0.4C41.18,1.68,41.18,2.07,41.43,2.07z"/>
	<path class="st0" d="M39.2,2.02c0.26,0,0.26-0.4,0-0.4C38.95,1.63,38.95,2.02,39.2,2.02z"/>
	<path class="st0" d="M42.85,3.81c-0.26,0-0.26,0.4,0,0.4C43.11,4.2,43.11,3.81,42.85,3.81z"/>
	<path class="st0" d="M37.79,4.18c0.26,0,0.26-0.4,0-0.4C37.53,3.78,37.53,4.18,37.79,4.18z"/>
	<path class="st0" d="M0.98,0.62L3.5,0.65l5.03,0.06L18.6,0.79c0.2,0,0.4,0,0.6,0c-0.18,0-0.37,0.02-0.55,0.04
		c-0.45,0.05-0.9,0.18-1.27,0.44c-0.37,0.25-0.65,0.64-0.71,1.07c-0.06,0.44,0.11,0.84,0.35,1.12c0.12,0.14,0.26,0.26,0.4,0.36
		c0.07,0.05,0.14,0.1,0.24,0.14c0.09,0.03,0.18,0.05,0.26,0.06c0.34,0.03,0.66-0.06,0.91-0.22c0.12-0.08,0.23-0.19,0.3-0.32
		c0.06-0.13,0.08-0.28,0.06-0.4c-0.02-0.13-0.08-0.24-0.14-0.33c-0.07-0.1-0.16-0.16-0.26-0.2c-0.19-0.08-0.39-0.05-0.53,0.02
		c-0.14,0.07-0.22,0.18-0.26,0.28c-0.03,0.1-0.02,0.18-0.02,0.23c0.01,0.05,0.02,0.08,0.02,0.08s-0.01-0.02-0.01-0.08
		c0-0.05,0-0.13,0.03-0.23c0.04-0.09,0.12-0.19,0.26-0.25c0.13-0.06,0.31-0.07,0.48,0.02c0.08,0.04,0.16,0.1,0.21,0.19
		c0.05,0.09,0.09,0.19,0.1,0.3c0.04,0.22-0.1,0.44-0.32,0.56c-0.22,0.13-0.51,0.19-0.79,0.15c-0.07-0.01-0.14-0.03-0.2-0.06
		c-0.06-0.02-0.12-0.07-0.18-0.12c-0.12-0.1-0.24-0.21-0.34-0.34c-0.2-0.25-0.31-0.58-0.25-0.91c0.06-0.33,0.29-0.63,0.6-0.82
		c0.32-0.2,0.7-0.3,1.12-0.34c0.42-0.04,0.86-0.02,1.3,0.02c0.9,0.1,1.83,0.32,2.77,0.61c0.47,0.15,0.94,0.32,1.43,0.51
		c0.49,0.18,0.99,0.35,1.5,0.51c1.3,0.4,2.6,0.69,3.86,0.8c0.63,0.05,1.26,0.06,1.86-0.01c0.3-0.04,0.6-0.09,0.89-0.17
		c0.07-0.02,0.14-0.04,0.22-0.07l0.1-0.04c0.05-0.02,0.1-0.04,0.16-0.07c0.24-0.1,0.4-0.23,0.54-0.35l-0.3-0.22
		c-0.1-0.07-0.22-0.14-0.31-0.2c-0.13-0.08-0.26-0.15-0.38-0.22c-0.26-0.14-0.52-0.26-0.77-0.36c-0.51-0.22-1.01-0.37-1.49-0.48
		c-0.05-0.01-0.1-0.02-0.16-0.04c0.6,0,1.3,0.09,2.04,0.3c0.26,0.07,0.5,0.16,0.78,0.26c0.2,0.07,0.4,0.14,0.62,0.21
		c0.01,0.02,0.02,0.03,0.02,0.04c0.16,0.36,0.36,0.7,0.56,1c0.06,0.09,0.12,0.19,0.19,0.28c0.05,0.07,0.1,0.14,0.16,0.2
		c0.21,0.27,0.44,0.52,0.69,0.75c0.5,0.46,1.1,0.82,1.72,0.96c0.3,0.07,0.6,0.08,0.86,0.04c0.13-0.02,0.24-0.05,0.36-0.09
		c0.12-0.04,0.21-0.1,0.3-0.16c0.19-0.14,0.32-0.28,0.44-0.44c-0.02,0.04-0.04,0.08-0.05,0.12c-0.04,0.1-0.08,0.21-0.1,0.33
		c-0.02,0.12-0.03,0.23-0.04,0.34c-0.01,0.23,0.02,0.48,0.07,0.72c0.12,0.48,0.37,0.93,0.65,1.34l0.43,0.62l0.1,0.16l0.13,0.2
		c0.13,0.22,0.26,0.47,0.39,0.72l0.03,0.05c0.12-0.23,0.25-0.48,0.38-0.71l0.1-0.16l0.05-0.08l0.1-0.16c0.13-0.2,0.28-0.4,0.42-0.6
		c0.14-0.2,0.29-0.4,0.41-0.63c0.12-0.22,0.22-0.46,0.28-0.7c0.06-0.24,0.08-0.48,0.07-0.71c0-0.06,0-0.11-0.01-0.17
		c-0.01-0.08-0.02-0.13-0.04-0.19c-0.03-0.12-0.07-0.22-0.11-0.31c-0.08-0.17-0.16-0.33-0.23-0.48c0.15,0.24,0.32,0.51,0.63,0.74
		c0.08,0.06,0.18,0.11,0.3,0.16c0.12,0.04,0.23,0.07,0.36,0.09c0.26,0.04,0.55,0.02,0.86-0.04c0.61-0.14,1.22-0.5,1.72-0.96
		c0.25-0.23,0.48-0.48,0.69-0.75c0.05-0.07,0.1-0.14,0.16-0.2c0.06-0.09,0.13-0.18,0.19-0.28c0.19-0.29,0.4-0.64,0.56-1
		c0.01-0.02,0.02-0.04,0.03-0.06c0.18-0.06,0.35-0.12,0.52-0.18c0.28-0.1,0.52-0.2,0.77-0.26c0.73-0.21,1.41-0.3,2.01-0.3
		c-0.05,0.01-0.1,0.02-0.16,0.03c-0.48,0.12-0.98,0.27-1.49,0.48c-0.26,0.1-0.51,0.23-0.77,0.36c-0.13,0.07-0.26,0.14-0.38,0.22
		c-0.1,0.06-0.21,0.13-0.31,0.2l-0.3,0.22c0.14,0.12,0.3,0.25,0.54,0.35c0.06,0.02,0.12,0.05,0.16,0.07l0.1,0.04
		c0.07,0.02,0.14,0.05,0.22,0.07c0.29,0.08,0.58,0.14,0.89,0.17c0.61,0.07,1.23,0.06,1.86,0.01c1.27-0.11,2.56-0.4,3.86-0.8
		c0.51-0.16,1.02-0.33,1.5-0.51c0.49-0.19,0.96-0.36,1.43-0.51c0.94-0.3,1.88-0.52,2.77-0.61c0.45-0.05,0.89-0.06,1.3-0.02
		c0.42,0.04,0.8,0.13,1.12,0.34c0.31,0.2,0.54,0.5,0.6,0.82c0.06,0.33-0.05,0.66-0.25,0.91c-0.1,0.13-0.22,0.24-0.34,0.34
		c-0.06,0.05-0.12,0.1-0.18,0.12c-0.06,0.03-0.13,0.05-0.2,0.06c-0.28,0.04-0.58-0.02-0.79-0.15c-0.22-0.12-0.36-0.35-0.32-0.56
		c0.02-0.11,0.05-0.21,0.1-0.3c0.05-0.08,0.12-0.15,0.21-0.19c0.16-0.08,0.34-0.07,0.48-0.02c0.13,0.05,0.22,0.16,0.26,0.25
		c0.04,0.09,0.04,0.18,0.03,0.23c0,0.05-0.01,0.08-0.01,0.08s0.01-0.02,0.02-0.08c0.01-0.05,0.02-0.13-0.02-0.23
		c-0.03-0.1-0.12-0.22-0.26-0.28c-0.14-0.07-0.33-0.1-0.53-0.02c-0.1,0.04-0.19,0.11-0.26,0.2c-0.06,0.1-0.12,0.2-0.14,0.33
		c-0.02,0.12-0.01,0.27,0.06,0.4c0.06,0.13,0.17,0.24,0.3,0.32c0.25,0.16,0.57,0.25,0.91,0.22c0.09-0.01,0.17-0.03,0.26-0.06
		c0.09-0.03,0.16-0.09,0.24-0.14c0.14-0.1,0.28-0.22,0.4-0.36c0.24-0.28,0.42-0.69,0.35-1.12c-0.06-0.43-0.34-0.82-0.71-1.07
		c-0.37-0.26-0.82-0.39-1.27-0.44c-0.45-0.06-0.92-0.05-1.38-0.02c-0.94,0.08-1.9,0.28-2.88,0.58c-0.48,0.14-0.98,0.32-1.46,0.5
		c-0.48,0.18-0.98,0.34-1.48,0.5C53.27,2.78,52,3.08,50.78,3.21c-0.61,0.06-1.2,0.08-1.77,0.03c-0.28-0.02-0.56-0.07-0.82-0.14
		C48.12,3.08,48.06,3.06,48,3.05L47.87,3c-0.02-0.01-0.07-0.02-0.08-0.04c0.02-0.02,0.05-0.04,0.09-0.07
		c0.12-0.08,0.24-0.15,0.36-0.22c0.24-0.14,0.48-0.26,0.73-0.37c0.48-0.22,0.96-0.4,1.42-0.53c0.33-0.09,0.64-0.17,0.95-0.22
		c0.28,0.05,0.52,0.13,0.72,0.23c0.26,0.12,0.45,0.28,0.59,0.42c0.27,0.29,0.33,0.51,0.34,0.5c0,0-0.02-0.05-0.05-0.14
		c-0.04-0.09-0.1-0.24-0.22-0.4s-0.3-0.35-0.55-0.51c-0.09-0.06-0.2-0.12-0.32-0.17c0.35-0.05,0.68-0.08,0.99-0.09
		c0.7-0.02,1.24,0.02,1.62,0.06c0.38,0.04,0.57,0.08,0.57,0.08s-0.19-0.05-0.57-0.12c-0.37-0.07-0.92-0.15-1.62-0.16
		c-0.41-0.01-0.88,0.01-1.38,0.07c-0.08-0.02-0.16-0.05-0.24-0.07c-0.76-0.19-1.74-0.22-2.84-0.01c-0.27,0.05-0.57,0.13-0.84,0.21
		c-0.28,0.08-0.56,0.15-0.85,0.2c-0.29,0.06-0.59,0.1-0.86,0.09c-0.76,0.02-1.05-0.19-1.05-0.19c-0.01,0.06-0.04,0.12-0.03,0.2
		c0.01,0.08,0.02,0.16,0.06,0.24c0.06,0.15,0.18,0.28,0.31,0.36c0.06,0.04,0.15,0.08,0.21,0.09c0.06,0.02,0.12,0.03,0.18,0.04
		c0.11,0.02,0.21,0.02,0.31,0.02c0.38-0.02,0.7-0.09,1.02-0.17c0.11-0.03,0.22-0.06,0.33-0.1c-0.16,0.12-0.33,0.22-0.5,0.29
		c-0.04,0.02-0.09,0.04-0.13,0.05c-0.02,0.01-0.04,0.02-0.06,0.02c-0.04,0.01-0.08,0.02-0.12,0.03C46.16,2.66,46,2.67,45.85,2.67
		c-0.16,0-0.32-0.01-0.5,0c-0.17,0-0.36,0.01-0.55,0.03c-0.19,0.02-0.38,0.04-0.57,0.07c-0.05,0.01-0.09,0.01-0.14,0.02
		c-0.06,0.01-0.11,0.02-0.16,0.03c-0.1,0.02-0.18,0.05-0.27,0.07c-0.34,0.09-0.64,0.14-0.92,0.16c-0.23,0.02-0.44,0-0.62-0.04
		c0.25,0,0.51-0.03,0.76-0.1c0.39-0.12,0.73-0.31,1-0.51s0.49-0.43,0.65-0.62c0.32-0.39,0.46-0.68,0.46-0.68
		c0,0-0.28,0.08-0.73,0.19c-0.22,0.05-0.49,0.1-0.77,0.14c-0.28,0.03-0.6,0.05-0.88-0.01c-0.14-0.03-0.27-0.08-0.39-0.14
		c-0.03-0.02-0.06-0.03-0.08-0.05c-0.03-0.02-0.04-0.03-0.1-0.07c-0.09-0.06-0.18-0.1-0.27-0.13c-0.36-0.11-0.69-0.06-0.94,0.06
		c-0.12,0.06-0.22,0.16-0.27,0.25c-0.01,0.02-0.02,0.03-0.02,0.05c-0.02-0.02-0.02-0.05-0.03-0.08c-0.05-0.12-0.04-0.2-0.04-0.2
		c0,0-0.05,0.07-0.05,0.21c0,0.09,0.02,0.22,0.06,0.36c-0.01-0.02-0.05-0.12,0,0c0.01,0.02,0.01,0.04,0.02,0.06
		c0.02,0.06,0.04,0.12,0.05,0.14c0,0,0,0.01,0,0.01c0.04,0.12,0.09,0.25,0.13,0.38c0.01,0.03,0.02,0.06,0.02,0.09
		c0,0.03,0,0.05,0,0.08c-0.01,0.07-0.02,0.14-0.05,0.2c-0.05,0.13-0.14,0.25-0.27,0.4l-0.1,0.11c-0.01,0.02-0.01,0.01-0.01,0.01l0,0
		h0c0,0,0,0,0,0s0,0,0,0h0l0,0c0,0,0,0,0,0l-0.01-0.02l-0.09-0.11c-0.02-0.02-0.02-0.03-0.04-0.05c0-0.01-0.01-0.02-0.01-0.02
		s0,0,0,0.01c-0.1-0.12-0.18-0.24-0.22-0.35c-0.05-0.13-0.06-0.26-0.04-0.38c0.03-0.12,0.1-0.24,0.15-0.36
		c0.12-0.23,0.19-0.43,0.17-0.58c-0.01-0.14-0.08-0.21-0.07-0.21c0,0,0.02,0.08-0.02,0.2c-0.02,0.04-0.04,0.09-0.06,0.14
		c-0.02-0.04-0.03-0.07-0.05-0.11c-0.06-0.09-0.15-0.18-0.27-0.25c-0.25-0.13-0.58-0.17-0.94-0.06c-0.09,0.03-0.18,0.07-0.27,0.13
		c-0.05,0.04-0.07,0.05-0.1,0.07c-0.03,0.02-0.05,0.04-0.08,0.05c-0.12,0.06-0.24,0.11-0.39,0.14C37.6,1.45,37.29,1.44,37,1.41
		c-0.29-0.03-0.55-0.09-0.77-0.14c-0.44-0.1-0.73-0.19-0.73-0.19c0,0,0.13,0.28,0.46,0.68c0.16,0.19,0.38,0.41,0.65,0.62
		c0.27,0.2,0.61,0.4,1,0.51C37.86,2.97,38.12,3,38.37,3c-0.19,0.03-0.4,0.05-0.62,0.04c-0.28-0.02-0.58-0.07-0.92-0.16
		c-0.09-0.02-0.17-0.05-0.27-0.07c-0.05-0.01-0.1-0.02-0.16-0.03c-0.05,0-0.09-0.01-0.14-0.02c-0.18-0.02-0.38-0.05-0.57-0.07
		c-0.19-0.02-0.38-0.03-0.55-0.03c-0.17,0-0.33,0.01-0.5,0c-0.16,0-0.32-0.02-0.48-0.05c-0.04-0.01-0.08-0.02-0.12-0.03
		C34.02,2.58,34,2.57,33.98,2.57c-0.04-0.02-0.09-0.03-0.13-0.05c-0.14-0.06-0.3-0.16-0.45-0.26c0.06,0.02,0.12,0.04,0.19,0.06
		c0.31,0.09,0.64,0.16,1.02,0.18c0.1,0,0.2,0,0.31-0.02c0.06-0.01,0.12-0.02,0.18-0.04c0.06-0.02,0.14-0.05,0.21-0.09
		c0.14-0.08,0.26-0.21,0.32-0.36c0.03-0.08,0.05-0.16,0.06-0.24c0.01-0.08,0-0.16,0-0.22c0,0,0,0,0-0.01c0,0-0.24,0.28-1.06,0.21
		c-0.26,0.01-0.56-0.03-0.85-0.09c-0.29-0.06-0.57-0.12-0.84-0.2c-0.27-0.08-0.56-0.16-0.83-0.21c-1.1-0.21-2.08-0.19-2.85-0.01
		c-0.1,0.02-0.2,0.05-0.3,0.09c-0.52-0.06-1-0.08-1.42-0.08c-0.7,0.02-1.25,0.1-1.62,0.16c-0.36,0.08-0.55,0.13-0.56,0.13
		c0,0,0.2-0.04,0.57-0.08c0.37-0.04,0.92-0.09,1.62-0.06c0.32,0.01,0.66,0.04,1.03,0.09c-0.1,0.05-0.19,0.1-0.28,0.15
		c-0.26,0.16-0.44,0.35-0.57,0.52c-0.12,0.17-0.19,0.31-0.23,0.41c-0.04,0.1-0.05,0.15-0.05,0.15c0,0,0.02-0.05,0.07-0.14
		c0.05-0.09,0.13-0.22,0.26-0.36c0.13-0.14,0.32-0.3,0.58-0.42c0.2-0.1,0.44-0.18,0.72-0.23c0.3,0.06,0.61,0.12,0.92,0.22
		c0.46,0.13,0.94,0.3,1.42,0.53c0.24,0.11,0.48,0.24,0.73,0.37c0.12,0.07,0.24,0.14,0.36,0.22c0.04,0.03,0.06,0.05,0.09,0.07
		c-0.01,0.02-0.06,0.03-0.08,0.04l-0.12,0.04c-0.06,0.02-0.13,0.04-0.19,0.05c-0.26,0.07-0.54,0.11-0.82,0.14
		c-0.57,0.05-1.16,0.03-1.77-0.03c-1.22-0.12-2.48-0.42-3.75-0.82c-0.5-0.16-1-0.32-1.48-0.5c-0.48-0.18-0.98-0.36-1.46-0.5
		c-0.97-0.29-1.94-0.5-2.88-0.58c-0.1-0.01-0.2-0.02-0.3-0.02c2.98,0.02,5.96,0.02,8.94,0.03l10.07,0.02l10.07-0.02
		c3.36-0.02,6.71-0.01,10.07-0.04L68.95,0.7c3.36-0.05,6.71-0.08,10.07-0.14c-3.36-0.06-6.71-0.09-10.07-0.14L58.88,0.35
		c-3.36-0.04-6.71-0.03-10.07-0.04L38.73,0.29L28.67,0.31c-3.36,0.02-6.71,0.01-10.07,0.04L8.53,0.43L3.5,0.5
		C3.5,0.5,0.98,0.61,0.98,0.62z M40.6,1.51c0.07-0.08,0.18-0.16,0.32-0.18c0.19-0.04,0.44,0,0.66,0.12c0.05,0.03,0.1,0.06,0.14,0.09
		c0.01,0.01,0.05,0.05,0.09,0.08c0.04,0.03,0.08,0.06,0.12,0.09c0.17,0.12,0.37,0.19,0.57,0.23c0.41,0.08,0.78,0.02,1.1-0.08
		c0.3-0.09,0.54-0.21,0.75-0.32c-0.4,0.26-0.96,0.6-1.62,0.79c-0.33,0.1-0.64,0.14-0.93,0.13c-0.26-0.01-0.5-0.08-0.69-0.17
		c0-0.01,0-0.02-0.01-0.02c-0.02-0.04-0.04-0.08-0.05-0.12c-0.08-0.14-0.16-0.26-0.24-0.37C40.72,1.7,40.65,1.6,40.6,1.51z
		 M37.79,2.35c-0.65-0.19-1.21-0.53-1.62-0.79c0.2,0.12,0.45,0.23,0.75,0.32c0.31,0.09,0.68,0.16,1.1,0.08
		c0.2-0.04,0.4-0.12,0.57-0.23c0.04-0.03,0.08-0.06,0.12-0.09c0.04-0.03,0.08-0.07,0.09-0.08c0.04-0.03,0.08-0.07,0.14-0.09
		c0.22-0.11,0.47-0.15,0.66-0.12c0.16,0.02,0.28,0.12,0.34,0.21c-0.05,0.08-0.12,0.16-0.2,0.24c-0.09,0.1-0.19,0.22-0.27,0.37
		c-0.02,0.05-0.04,0.1-0.05,0.15c-0.19,0.09-0.42,0.16-0.69,0.17C38.43,2.49,38.12,2.44,37.79,2.35z M34.26,3.21
		c0.02,0,0.05,0.01,0.07,0.01c0.05,0.01,0.09,0.01,0.14,0.02c0.18,0.01,0.34-0.01,0.5-0.04c0.31-0.06,0.59-0.13,0.9-0.13
		c0.16,0,0.32,0,0.49,0.01c0.04,0,0.08,0,0.12,0c0.02,0,0.06,0.01,0.1,0.02c0.08,0.02,0.16,0.03,0.24,0.05
		c0.33,0.07,0.66,0.11,0.95,0.1c0.51-0.01,0.92-0.16,1.19-0.33c0.17-0.05,0.33-0.13,0.46-0.22c0.04,0.17,0.14,0.34,0.25,0.5
		l0.25,0.34c0.11,0.16,0.23,0.38,0.34,0.56l0.01,0.01c0.11-0.18,0.22-0.38,0.33-0.55c0.03-0.04,0.06-0.08,0.09-0.12l0.08-0.11
		l0.09-0.12c0.12-0.15,0.23-0.33,0.26-0.51c0.13,0.09,0.28,0.16,0.46,0.22c0.26,0.18,0.68,0.32,1.19,0.33
		c0.3,0.01,0.62-0.03,0.95-0.1c0.08-0.02,0.16-0.04,0.24-0.05c0.04-0.01,0.08-0.01,0.1-0.02c0.04,0,0.08,0,0.12,0
		c0.16-0.01,0.33-0.02,0.49-0.01c0.32,0,0.6,0.07,0.9,0.13c0.16,0.03,0.32,0.05,0.5,0.04c0.05,0,0.09-0.01,0.14-0.02
		c0.02,0,0.05-0.01,0.07-0.01l0,0l0,0l0,0c0,0,0,0,0,0c-0.01,0.02-0.02,0.03-0.03,0.04c-0.02,0.04-0.05,0.07-0.08,0.1
		c-0.05,0.07-0.1,0.13-0.16,0.2c-0.2,0.25-0.42,0.49-0.66,0.7C44.9,4.67,44.4,4.98,43.91,5.1c-0.24,0.06-0.47,0.09-0.68,0.08
		c-0.1-0.01-0.22-0.02-0.3-0.04c-0.09-0.02-0.17-0.05-0.25-0.09c-0.31-0.16-0.53-0.4-0.72-0.63c-0.19-0.23-0.34-0.46-0.49-0.67
		c-0.14-0.2-0.28-0.38-0.4-0.52c-0.02-0.02-0.04-0.04-0.05-0.06c0,0,0,0,0,0c-0.05,0.07-0.1,0.14-0.16,0.21
		c0.09,0.23,0.2,0.48,0.31,0.76c0.12,0.32,0.28,0.66,0.4,1.03c0.03,0.09,0.06,0.18,0.08,0.27c0.01,0.04,0.02,0.09,0.02,0.12l0,0.14
		c-0.01,0.2-0.04,0.4-0.1,0.59c-0.11,0.39-0.37,0.74-0.66,1.13c-0.15,0.19-0.3,0.4-0.45,0.61l-0.11,0.16l-0.05,0.08l0,0l0,0l0,0l0,0
		l-0.02-0.03l-0.05-0.08L40.11,8l-0.44-0.61C39.39,7,39.16,6.62,39.03,6.23c-0.06-0.19-0.09-0.39-0.1-0.58c0-0.09,0-0.2,0.01-0.28
		S38.97,5.18,39,5.1c0.11-0.35,0.3-0.68,0.45-0.98c0.12-0.23,0.23-0.45,0.32-0.66c-0.03-0.04-0.06-0.09-0.09-0.13
		c-0.04-0.05-0.07-0.11-0.1-0.16c-0.02,0.02-0.04,0.05-0.07,0.07c-0.12,0.14-0.26,0.32-0.4,0.52c-0.14,0.2-0.3,0.44-0.49,0.67
		c-0.19,0.23-0.41,0.47-0.72,0.63c-0.08,0.04-0.16,0.07-0.25,0.09c-0.09,0.02-0.2,0.04-0.3,0.04c-0.22,0.01-0.44-0.01-0.68-0.08
		c-0.48-0.13-0.98-0.43-1.44-0.84c-0.24-0.22-0.46-0.45-0.66-0.7c-0.05-0.06-0.1-0.13-0.16-0.2c-0.02-0.04-0.05-0.07-0.08-0.1
		c-0.01-0.02-0.02-0.03-0.03-0.04C34.26,3.21,34.26,3.21,34.26,3.21C34.26,3.21,34.26,3.21,34.26,3.21
		C34.26,3.21,34.26,3.21,34.26,3.21C34.26,3.21,34.26,3.21,34.26,3.21z"/>
	<path class="st0" d="M0.98,0.62C0.98,0.63,2.47,0.64,0.98,0.62L0.98,0.62z"/>
	<path class="st0" d="M41.35,3.94c-0.06-0.11-0.11-0.21-0.16-0.31c0.03,0.05,0.06,0.11,0.09,0.17C41.31,3.84,41.33,3.89,41.35,3.94z
		"/>
	<circle class="st0" cx="61.88" cy="3.13" r="0.31"/>
	<path class="st0" d="M18.88,3.13c0-0.19-0.16-0.34-0.34-0.34s-0.34,0.16-0.34,0.34s0.16,0.34,0.34,0.34S18.88,3.32,18.88,3.13z"/>
</g>
</svg>
